<svg width="50" height="50" viewBox="0 0 50 50" fill="none" xmlns="http://www.w3.org/2000/svg">
<path fill-rule="evenodd" clip-rule="evenodd" d="M37.5 4.16663H12.5C7.89765 4.16663 4.16669 7.89759 4.16669 12.5V44.7916C4.16669 45.3669 4.63306 45.8333 5.20835 45.8333C5.4836 45.8317 5.74653 45.719 5.93752 45.5208L12.1875 39.2708C13.384 38.1058 14.997 37.4681 16.6667 37.5H37.5C42.1024 37.5 45.8334 33.769 45.8334 29.1666V12.5C45.8334 7.89759 42.1024 4.16663 37.5 4.16663ZM29.1667 26.0416C29.1667 26.6169 28.7003 27.0833 28.125 27.0833H13.5417C12.9664 27.0833 12.5 26.6169 12.5 26.0416V23.9583C12.5 23.383 12.9664 22.9166 13.5417 22.9166H28.125C28.7003 22.9166 29.1667 23.383 29.1667 23.9583V26.0416ZM36.4584 18.75C37.0336 18.75 37.5 18.2836 37.5 17.7083V15.625C37.5 15.0497 37.0336 14.5833 36.4584 14.5833H13.5417C12.9664 14.5833 12.5 15.0497 12.5 15.625V17.7083C12.5 18.2836 12.9664 18.75 13.5417 18.75H36.4584Z" fill="white"/>
</svg>
