<svg width="120" height="58" viewBox="0 0 120 58" fill="none" xmlns="http://www.w3.org/2000/svg">
<g clip-path="url(#clip0_106_235)">
<path d="M0 32.3734V0.227539H5.28669L17.0877 27.0471L28.661 0.227539H33.72V32.3734H30.0074V5.99934L18.5826 32.3734H15.2958L3.71256 5.99934V32.3734H0Z" fill="black"/>
<path d="M40.9174 31.2449V27.4235C44.2934 28.6214 47.9268 29.2253 51.8472 29.2253C57.3814 29.2253 60.1436 27.2057 60.1436 23.1565C60.1436 19.7112 58.1041 17.9886 54.0253 17.9886H49.887C43.1549 17.9886 39.7888 15.0681 39.7888 9.21706C39.7888 3.06905 44.0954 0 52.7184 0C56.4607 0 59.9456 0.445508 63.173 1.34642V5.16789C59.9456 3.96997 56.4706 3.36606 52.7184 3.36606C46.8773 3.36606 43.9469 5.31639 43.9469 9.20716C43.9469 12.6524 45.9269 14.3751 49.887 14.3751H54.0253C60.8762 14.3751 64.3016 17.2956 64.3016 23.1466C64.3016 29.4431 60.1535 32.5914 51.8472 32.5914C47.9367 32.5914 44.2934 32.1459 40.9174 31.2449Z" fill="black"/>
<path d="M67.6677 31.2449V27.4235C71.0436 28.6214 74.677 29.2253 78.5975 29.2253C84.1317 29.2253 86.8938 27.2057 86.8938 23.1565C86.8938 19.7112 84.8544 17.9886 80.7755 17.9886H76.6372C69.9051 17.9886 66.5391 15.0681 66.5391 9.21706C66.5391 3.06905 70.8456 0 79.4687 0C83.211 0 86.6958 0.445508 89.9233 1.34642V5.16789C86.7057 3.96997 83.2209 3.36606 79.4687 3.36606C73.6276 3.36606 70.6971 5.31639 70.6971 9.20716C70.6971 12.6524 72.6772 14.3751 76.6372 14.3751H80.7755C87.6264 14.3751 91.0519 17.2956 91.0519 23.1466C91.0519 29.4431 86.9037 32.5914 78.5975 32.5914C74.6869 32.5914 71.0436 32.1459 67.6677 31.2449Z" fill="black"/>
<path d="M97.1207 32.3734V0.227539H110.159C116.723 0.227539 120.01 3.09859 120.01 8.84069C120.01 15.0877 115.525 18.9092 106.546 20.2853L105.694 16.7806C112.288 15.8104 115.585 13.2166 115.585 9.02879C115.585 5.46473 113.654 3.6827 109.783 3.6827H101.289V32.3932H97.1306L97.1207 32.3734Z" fill="black"/>
<path d="M7.53402 44.7484V46.0355H6.445V44.6692C6.445 42.8179 5.73219 41.4022 3.82145 41.4022C1.91072 41.4022 1.19791 42.808 1.19791 44.6692V53.6784C1.19791 55.5297 1.91072 56.9158 3.82145 56.9158C5.73219 56.9158 6.445 55.5297 6.445 53.6784V49.946H4.14816V48.9065H7.53402V53.6091C7.53402 56.1039 6.445 57.985 3.80165 57.985C1.15831 57.985 0.0593872 56.1039 0.0593872 53.6091V44.7484C0.0593872 42.2536 1.14841 40.3726 3.79175 40.3726C6.4351 40.3726 7.52412 42.2536 7.52412 44.7484H7.53402Z" fill="black"/>
<path d="M15.6324 40.5112H16.7709V56.797H22.216V57.8365H15.6324V40.5112Z" fill="black"/>
<path d="M33.819 40.3628C36.492 40.3628 37.6503 42.2141 37.6503 44.7387V53.5993C37.6503 56.1239 36.492 57.9752 33.819 57.9752C31.1459 57.9752 30.0371 56.1239 30.0371 53.5993V44.7387C30.0371 42.2141 31.1954 40.3628 33.819 40.3628ZM33.819 56.9456C35.7495 56.9456 36.5118 55.5596 36.5118 53.6785V44.6694C36.5118 42.7883 35.7495 41.4023 33.819 41.4023C31.8884 41.4023 31.1756 42.7883 31.1756 44.6694V53.6785C31.1756 55.5596 31.9181 56.9456 33.819 56.9456Z" fill="black"/>
<path d="M52.9065 44.204V45.194C52.9065 47.075 52.3917 48.2334 50.6295 48.6096C52.5105 48.9858 53.2233 50.3619 53.2233 52.3221V53.827C53.2233 56.3218 52.0848 57.8365 49.4414 57.8365H45.7289V40.5112H49.3622C51.9561 40.5112 52.8966 41.7983 52.8966 44.1941L52.9065 44.204ZM51.768 45.4118V44.303C51.768 42.5012 51.2037 41.5607 49.3424 41.5607H46.8674V48.1641H48.7979C50.8275 48.1641 51.768 47.6196 51.768 45.4217V45.4118ZM52.0947 53.7973V52.2429C52.0947 49.9956 51.0849 49.2036 49.0256 49.2036H46.8773V56.797H49.4513C51.3522 56.797 52.0947 55.7377 52.0947 53.8072V53.7973Z" fill="black"/>
<path d="M62.0642 57.8368H61.0247L64.8065 40.4917H66.4599L70.3209 57.8368H69.1824L68.3112 54.0054H62.9156L62.0543 57.8368H62.0642ZM68.1528 53.0154L65.6084 41.8084L63.1136 53.0154H68.1627H68.1528Z" fill="black"/>
<path d="M78.251 40.5112H79.3895V56.797H84.8346V57.8365H78.251V40.5112Z" fill="black"/>
</g>
<defs>
<clipPath id="clip0_106_235">
<rect width="120" height="57.9853" fill="black"/>
</clipPath>
</defs>
</svg>
