<?xml version="1.0" encoding="UTF-8" standalone="no"?>
<!-- Created with Inkscape (http://www.inkscape.org/) -->

<svg
   version="1.1"
   id="svg2"
   width="377.95334"
   height="142.276"
   viewBox="0 0 377.95334 142.276"
   sodipodi:docname="mssp_logo_basic_black.ai"
   xmlns:inkscape="http://www.inkscape.org/namespaces/inkscape"
   xmlns:sodipodi="http://sodipodi.sourceforge.net/DTD/sodipodi-0.dtd"
   xmlns="http://www.w3.org/2000/svg"
   xmlns:svg="http://www.w3.org/2000/svg">
  <defs
     id="defs6">
    <clipPath
       clipPathUnits="userSpaceOnUse"
       id="clipPath24">
      <path
         d="M 0,106.707 H 283.465 V 0 H 0 Z"
         id="path22" />
    </clipPath>
  </defs>
  <sodipodi:namedview
     id="namedview4"
     pagecolor="#ffffff"
     bordercolor="#000000"
     borderopacity="0.25"
     inkscape:showpageshadow="2"
     inkscape:pageopacity="0.0"
     inkscape:pagecheckerboard="0"
     inkscape:deskcolor="#d1d1d1" />
  <g
     id="g8"
     inkscape:groupmode="layer"
     inkscape:label="mssp_logo_basic_black"
     transform="matrix(1.3333333,0,0,-1.3333333,0,142.276)">
    <g
       id="g10"
       transform="translate(58.5621,106.7067)">
      <path
         d="m 0,0 -19.049,-19.048 6.455,-6.456 9.93,9.93 V -63.892 H 6.455 V 0 Z"
         style="fill:#1a171b;fill-opacity:1;fill-rule:nonzero;stroke:none"
         id="path12" />
    </g>
    <g
       id="g14"
       transform="translate(1.125,106.7067)">
      <path
         d="m 0,0 v -63.892 h 9.131 v 48.306 l 22.814,-22.815 6.456,6.455 L 6.455,0 Z"
         style="fill:#1a171b;fill-opacity:1;fill-rule:nonzero;stroke:none"
         id="path16" />
    </g>
    <g
       id="g18">
      <g
         id="g20"
         clip-path="url(#clipPath24)">
        <g
           id="g26"
           transform="translate(135.3898,70.1962)">
          <path
             d="m 0,0 c 1.56,-2.689 2.448,-5.808 2.448,-9.131 0,-3.323 -0.888,-6.442 -2.448,-9.118 -3.145,-5.454 -9.055,-9.131 -15.814,-9.131 h -27.381 c -6.759,0 -12.669,3.677 -15.814,9.131 -1.56,2.676 -2.448,5.795 -2.448,9.118 h 9.131 c 0,-5.035 4.084,-9.118 9.131,-9.118 h 27.381 c 5.034,0 9.131,4.083 9.131,9.118 0,5.047 -4.097,9.131 -9.131,9.131 h -27.381 c -4.629,0 -8.852,1.725 -12.073,4.566 -1.484,1.306 -2.752,2.853 -3.741,4.565 -1.56,2.689 -2.448,5.808 -2.448,9.131 0,3.323 0.888,6.443 2.448,9.118 3.145,5.454 9.055,9.131 15.814,9.131 h 27.381 c 6.759,0 12.669,-3.677 15.814,-9.131 1.56,-2.675 2.448,-5.795 2.448,-9.118 h -9.131 c 0,5.035 -4.097,9.118 -9.131,9.118 h -27.381 c -5.047,0 -9.131,-4.083 -9.131,-9.118 0,-5.047 4.084,-9.131 9.131,-9.131 h 27.381 c 4.628,0 8.864,-1.725 12.073,-4.565 C -2.257,3.259 -0.989,1.712 0,0"
             style="fill:#1a171b;fill-opacity:1;fill-rule:nonzero;stroke:none"
             id="path28" />
        </g>
        <g
           id="g30"
           transform="translate(208.203,70.1962)">
          <path
             d="m 0,0 c 1.56,-2.689 2.448,-5.808 2.448,-9.131 0,-3.323 -0.888,-6.442 -2.448,-9.118 -3.145,-5.454 -9.055,-9.131 -15.814,-9.131 h -27.381 c -6.759,0 -12.669,3.677 -15.814,9.131 -1.56,2.676 -2.448,5.795 -2.448,9.118 h 9.131 c 0,-5.035 4.084,-9.118 9.131,-9.118 h 27.381 c 5.034,0 9.131,4.083 9.131,9.118 0,5.047 -4.097,9.131 -9.131,9.131 h -27.381 c -4.629,0 -8.852,1.725 -12.073,4.566 -1.484,1.306 -2.752,2.853 -3.741,4.565 -1.56,2.689 -2.448,5.808 -2.448,9.131 0,3.323 0.888,6.443 2.448,9.118 3.145,5.454 9.055,9.131 15.814,9.131 h 27.381 c 6.759,0 12.669,-3.677 15.814,-9.131 1.56,-2.675 2.448,-5.795 2.448,-9.118 h -9.131 c 0,5.035 -4.097,9.118 -9.131,9.118 h -27.381 c -5.047,0 -9.131,-4.083 -9.131,-9.118 0,-5.047 4.084,-9.131 9.131,-9.131 h 27.381 c 4.628,0 8.864,-1.725 12.073,-4.565 C -2.257,3.259 -0.989,1.712 0,0"
             style="fill:#1a171b;fill-opacity:1;fill-rule:nonzero;stroke:none"
             id="path32" />
        </g>
        <g
           id="g34"
           transform="translate(260.6369,70.1949)">
          <path
             d="M 0,0 H -31.946 V 27.38 H 0 c 7.571,0 13.697,-6.125 13.697,-13.683 C 13.697,6.125 7.571,0 0,0 M 18.275,27.38 C 14.102,32.922 7.47,36.511 0,36.511 H -41.077 V -27.38 h 9.131 V -9.131 H 0 c 7.47,0 14.102,3.589 18.275,9.131 2.853,3.817 4.553,8.56 4.553,13.697 0,5.136 -1.687,9.866 -4.553,13.683"
             style="fill:#1a171b;fill-opacity:1;fill-rule:nonzero;stroke:none"
             id="path36" />
        </g>
        <g
           id="g38"
           transform="translate(10.8686,12.1491)">
          <path
             d="M 0,0 V -2.562 H 7.711 C 7.102,-6.265 3.881,-9.106 0,-9.106 c -4.325,0 -7.825,3.5 -7.825,7.825 0,4.325 3.5,7.825 7.825,7.825 2.879,0 5.415,-1.611 6.772,-3.906 L 9.397,4.147 C 7.52,7.406 4.02,9.588 0,9.588 c -5.999,0 -10.869,-4.87 -10.869,-10.869 0,-5.998 4.87,-10.868 10.869,-10.868 5.999,0 10.868,4.87 10.868,10.868 0,0.431 -0.038,0.862 -0.088,1.281 z"
             style="fill:#1a171b;fill-opacity:1;fill-rule:nonzero;stroke:none"
             id="path40" />
        </g>
        <g
           id="g42"
           transform="translate(37.1622,21.5185)">
          <path
             d="m 0,0 h -3.043 v -21.306 h 14.534 v 2.557 l -11.491,0 z"
             style="fill:#1a171b;fill-opacity:1;fill-rule:nonzero;stroke:none"
             id="path44" />
        </g>
        <g
           id="g46"
           transform="translate(154.3333,2.7692)">
          <path
             d="M 0,0 V 18.749 H -3.043 V -2.556 H 11.491 V 0 Z"
             style="fill:#1a171b;fill-opacity:1;fill-rule:nonzero;stroke:none"
             id="path48" />
        </g>
        <g
           id="g50"
           transform="translate(124.6008,8.1859)">
          <path
             d="M 0,0 3.171,10.78 H 6.519 L 9.689,0 Z M 1.04,13.329 -5.453,-7.977 h 3.094 l 1.598,5.428 H 10.45 l 1.598,-5.428 h 3.094 L 8.586,13.329 Z"
             style="fill:#1a171b;fill-opacity:1;fill-rule:nonzero;stroke:none"
             id="path52" />
        </g>
        <g
           id="g54"
           transform="translate(69.0409,3.037)">
          <path
             d="m 0,0 c -4.312,0 -7.825,3.513 -7.825,7.825 0,4.324 3.513,7.825 7.825,7.825 4.325,0 7.825,-3.501 7.825,-7.825 C 7.825,3.513 4.325,0 0,0 m 0,18.693 c -5.999,0 -10.856,-4.857 -10.856,-10.868 0,-5.999 4.857,-10.856 10.856,-10.856 6.011,0 10.868,4.857 10.868,10.856 0,6.011 -4.857,10.868 -10.868,10.868"
             style="fill:#1a171b;fill-opacity:1;fill-rule:nonzero;stroke:none"
             id="path56" />
        </g>
        <g
           id="g58"
           transform="translate(105.7045,5.9032)">
          <path
             d="m 0,0 c -0.063,-0.951 -0.431,-1.699 -1.091,-2.232 -0.114,-0.102 -0.241,-0.178 -0.38,-0.266 -0.571,-0.394 -1.256,-0.635 -2.004,-0.635 h -6.734 v 6.976 h 6.874 C -2.498,3.805 -1.737,3.475 -1.154,2.942 -1.091,2.904 -1.04,2.853 -0.976,2.79 -0.406,2.283 -0.076,1.598 0,0.748 0,0.621 0.013,0.495 0.013,0.355 0.013,0.228 0.013,0.114 0,0 m -10.209,13.062 h 6.341 c 0.634,0 1.243,-0.19 1.75,-0.507 0.051,-0.025 0.089,-0.051 0.14,-0.076 0.152,-0.101 0.304,-0.203 0.431,-0.317 0.101,-0.089 0.203,-0.19 0.292,-0.304 0.063,-0.064 0.114,-0.14 0.164,-0.216 0.051,-0.063 0.102,-0.139 0.14,-0.228 0.025,-0.026 0.038,-0.051 0.051,-0.089 0.05,-0.089 0.088,-0.203 0.126,-0.304 0.026,-0.076 0.051,-0.153 0.077,-0.229 0.038,-0.126 0.076,-0.266 0.101,-0.393 0.038,-0.215 0.063,-0.444 0.063,-0.672 0,-0.114 0,-0.228 -0.012,-0.342 C -0.609,8.497 -0.951,7.799 -1.573,7.279 -1.598,7.267 -1.611,7.241 -1.636,7.241 -1.737,7.153 -1.852,7.064 -1.966,6.988 -2.016,6.95 -2.08,6.912 -2.143,6.886 -2.65,6.569 -3.234,6.392 -3.868,6.392 h -6.341 z M 0.583,5.339 c 1.218,1.065 1.979,2.638 1.979,4.388 0,0.368 -0.038,0.736 -0.102,1.091 -0.012,0.038 -0.012,0.088 -0.025,0.127 -0.317,1.496 -1.192,2.777 -2.41,3.627 -0.012,0 -0.038,0.025 -0.063,0.038 -0.14,0.088 -0.279,0.164 -0.431,0.241 -0.913,0.456 -2.017,0.71 -3.323,0.735 -0.139,0.026 -0.279,0.026 -0.418,0.026 h -9.043 V -5.694 h 9.372 c 0.152,0 0.305,0 0.444,0.025 h 0.051 c 0.19,-0.013 0.38,-0.025 0.571,-0.025 3.335,0 6.036,2.714 6.036,6.049 0,2.08 -1.052,3.906 -2.638,4.984"
             style="fill:#1a171b;fill-opacity:1;fill-rule:nonzero;stroke:none"
             id="path60" />
        </g>
      </g>
    </g>
  </g>
</svg>
