<svg width="50" height="50" viewBox="0 0 50 50" fill="none" xmlns="http://www.w3.org/2000/svg">
<path fill-rule="evenodd" clip-rule="evenodd" d="M26.6933 4.93746L47.7191 40.8958C47.9897 41.3889 47.9897 41.986 47.7191 42.4791L47.4274 42.9583C47.1573 43.4526 46.6362 43.7572 46.0729 43.75H3.93793C3.37464 43.7572 2.85348 43.4526 2.58344 42.9583L2.2917 42.4791C2.02109 41.986 2.02109 41.3889 2.2917 40.8958L23.3592 4.93746C23.6442 4.46082 24.1582 4.16831 24.7137 4.16663H25.3388C25.8943 4.16831 26.4083 4.46082 26.6933 4.93746ZM25.0054 10.4166L7.8972 39.5833H42.0928L25.0054 10.4166ZM23.9635 31.25C23.3881 31.25 22.9216 31.7163 22.9216 32.2916V34.375C22.9216 34.9503 23.3881 35.4166 23.9635 35.4166H26.0473C26.6228 35.4166 27.0892 34.9503 27.0892 34.375V32.2916C27.0892 31.7163 26.6228 31.25 26.0473 31.25H23.9635ZM23.38 26.625L22.5465 19.9166C22.5106 19.6194 22.6042 19.3211 22.8037 19.0978C23.0031 18.8745 23.289 18.7478 23.5884 18.75H26.4224C26.7218 18.7478 27.0077 18.8745 27.2071 19.0978C27.4066 19.3211 27.5003 19.6194 27.4643 19.9166L26.6308 26.625C26.599 26.888 26.3748 27.0852 26.1098 27.0833H23.901C23.636 27.0852 23.4118 26.888 23.38 26.625Z" fill="white"/>
</svg>
