<svg width="279" height="239" viewBox="0 0 279 239" fill="none" xmlns="http://www.w3.org/2000/svg">
<g clip-path="url(#clip0_984_929)">
<path d="M40.0167 80C10.0873 80.0112 0.0341423 87.1779 0.000488281 98.9642V99.0807C0.0349275 131.858 29.3679 160.173 40.0865 160.173C50.8115 160.173 80.1733 131.825 80.1733 99.0233C80.1733 87.2017 70.1356 80.0113 40.1562 80.0001H40.0167V80Z" fill="#CDCDCD"/>
<path d="M261.97 112.905V112.921C261.97 113.27 261.69 113.555 261.341 113.555H261.312H256.302H256.3C255.954 113.555 255.668 113.27 255.668 112.921V96.4099C255.668 95.306 255.546 94.5746 255.325 94.2124C255.15 93.9286 254.808 93.757 254.264 93.6966C253.83 93.6477 253.353 93.7231 252.939 93.5524C252.645 93.4326 252.441 93.1529 252.423 92.8172C252.406 92.506 252.597 92.1816 252.885 92.028C253.017 91.9591 253.177 91.9347 253.337 91.9214C254.597 91.7434 258.924 90.9637 261.001 90.5253C261.442 90.431 261.894 90.4724 261.938 90.9654C261.999 92.6389 262.772 93.0812 264.915 91.6792C265.777 91.1295 266.589 90.8099 267.277 90.5723C267.969 90.3321 268.707 90.2142 269.5 90.2142C271.634 90.2142 273.279 90.8383 274.432 92.0969C275.586 93.3546 276.164 95.0147 276.164 97.0794V108.433C276.164 109.955 276.317 111.774 278.126 111.869H278.16C278.2 111.869 278.242 111.869 278.286 111.876L278.32 111.88L278.315 111.883C278.707 111.954 279 112.272 279 112.707C279 113.147 278.622 113.578 278.16 113.554L278.091 113.547H273.136C273.081 113.554 273.028 113.554 272.968 113.554C271.259 113.554 269.861 112.153 269.861 110.429V98.3709C269.861 96.9265 269.544 95.8565 268.905 95.1683C268.267 94.482 267.418 94.1371 266.348 94.1371C265.459 94.1371 264.554 94.3925 263.623 94.9158C262.485 95.535 261.989 96.6486 261.97 97.6158V112.905L261.97 112.905ZM250.084 96.2809V107.823C250.084 108.855 250.215 109.604 250.476 110.068C250.69 110.466 250.967 110.69 251.294 110.752C251.824 110.837 252.231 111.299 252.231 111.853C252.231 112.267 252.006 112.628 251.671 112.816V112.82C250.728 113.367 249.603 113.778 248.434 113.787C247.371 113.787 246.476 113.536 245.762 113.06C244.947 112.519 244.544 111.582 243.413 111.582C242.429 111.582 241.769 112.406 241.031 112.923C240.254 113.462 239.479 113.787 238.236 113.787C236.348 113.787 234.801 113.127 233.578 111.802C232.362 110.475 231.751 109.02 231.751 107.437C231.751 104.856 233.078 103.031 235.729 101.962C237.209 101.38 238.695 100.786 240.172 100.156C241.271 99.6843 242.165 99.2789 242.855 98.9302L242.862 98.9264C243.529 98.6218 243.993 97.9486 243.993 97.1698V97.0945V96.4385C243.993 94.0872 243.287 92.0978 241.242 92.0188C237.603 91.8781 237.299 95.0196 236.847 97.3577C236.677 98.2261 235.938 98.7105 235.162 98.7105C234.575 98.7105 233.956 98.489 233.304 98.041C232.507 97.4906 232.507 96.9032 232.507 96.281C232.507 92.62 236.5 89.7627 241.253 89.8277C246.705 89.9004 250.084 91.189 250.084 96.281V96.2809ZM243.993 106.088L243.987 102.167L243.991 102.142V102.119C243.991 101.569 243.547 101.127 243 101.127C242.805 101.127 242.623 101.182 242.473 101.278L240.528 102.378C238.687 103.424 237.723 105.099 237.756 106.839C237.794 108.559 239.157 109.96 240.864 109.96C242.203 109.96 243.349 109.115 243.793 107.928C244.022 107.317 243.993 106.726 243.993 106.088V106.088ZM215.231 95.0053C215.241 95.0542 215.245 94.8544 215.245 95.159C215.245 95.4608 215.135 96.0038 214.531 96.0989C213.926 96.1959 213.535 95.833 213.396 95.4474C212.677 93.5054 211.177 91.9941 208.846 91.9941C208.023 91.9941 206.738 92.2891 206.152 92.8735C205.569 93.4583 205.279 94.1473 205.279 94.9375C205.279 95.6625 205.613 96.3421 206.283 96.9814C208.501 99.0837 212.404 99.0659 214.842 101.343C216.182 102.584 216.856 104.183 216.856 106.145C216.856 108.588 215.823 110.52 213.755 111.928C211.929 113.169 209.776 113.787 207.298 113.787C205.887 113.787 204.571 113.583 203.35 113.169C202.247 112.796 201.407 112.355 200.82 111.842V111.84C200.7 111.737 200.606 111.6 200.558 111.443C200.411 110.954 200.254 110.083 200.096 108.831C200.008 108.157 199.942 107.543 199.895 106.99C199.889 106.865 199.878 106.746 199.891 106.62C199.959 106.145 200.373 105.777 200.862 105.777C201.278 105.777 201.641 106.036 201.785 106.401C203.016 109.649 204.663 111.5 207.972 111.62C208.937 111.655 209.719 111.32 210.32 110.715C210.924 110.113 211.226 109.331 211.226 108.367C211.226 107.506 210.914 106.73 210.296 106.042C209.677 105.352 208.674 104.734 207.298 104.183C204.167 102.976 200.175 100.495 200.147 96.6391C200.125 92.8765 203.094 90.8845 206.407 90.1557C208.938 89.5993 211.512 89.9927 213.922 90.9665C213.969 90.9871 214.018 91.0069 214.062 91.0315C214.169 91.0863 214.26 91.1777 214.318 91.2843C214.367 91.3661 214.4 91.4756 214.428 91.5603C214.565 91.9714 214.732 92.5692 214.916 93.3517C215.116 94.1812 215.091 94.1991 215.235 95.0053H215.231H215.231ZM227.636 83.7694C227.636 85.8499 225.952 87.5367 223.87 87.5367C221.788 87.5367 220.103 85.8499 220.103 83.7694C220.103 81.6886 221.788 80.001 223.87 80.001C225.952 80.001 227.636 81.6886 227.636 83.7694ZM229.478 113.555C230.044 113.555 230.388 113.147 230.388 112.71C230.388 112.273 230.05 111.934 229.515 111.865C227.715 111.638 227.555 109.955 227.555 108.437C227.555 108.437 227.554 95.356 227.554 90.859C227.554 90.3716 227.054 90.3291 226.613 90.4215C225.273 90.7524 223.848 90.9985 222.498 91.2898C221.55 91.4943 220.546 91.6517 219.49 91.812C219.265 91.847 218.95 91.8638 218.734 91.9629C218.431 92.1062 218.218 92.4247 218.218 92.7482C218.214 93.0905 218.413 93.3912 218.705 93.5325C218.991 93.6656 219.579 93.7127 219.91 93.7984C221.452 94.1878 221.257 95.6348 221.257 97.0246V110.218C221.257 112.02 222.646 113.554 224.358 113.554C224.411 113.554 228.239 113.555 229.478 113.555L229.478 113.555ZM122.064 80.001C124.174 80.001 124.932 80.0263 125.503 80.2121C125.927 80.3508 126.28 80.6779 126.326 81.1926C126.452 82.6229 126.666 85.8558 126.666 85.8558C126.801 87.185 126.084 87.2981 125.636 87.2981C125.22 87.2981 124.769 86.9937 124.591 86.3563C124.233 85.0808 123.583 84.1729 123.067 83.6478C122.311 82.8709 120.449 81.9724 117.493 81.9724H114.73C113.807 81.9724 113.37 82.6557 113.37 83.7776V92.1101C113.37 92.5144 113.374 93.1604 113.49 93.5497C113.678 94.1718 114.184 94.6678 114.826 94.8383C115.165 94.9279 115.535 94.9007 115.882 94.9007H117.247C119.447 94.9007 120.35 94.7018 120.815 94.3095C121.188 93.9899 121.499 93.1227 121.748 91.7047C121.774 91.5473 121.796 91.3625 121.852 91.2117C121.994 90.8364 122.357 90.5649 122.781 90.5649C123.221 90.5649 123.728 90.8401 123.728 91.4067L123.724 100.831C123.724 101.31 123.31 101.676 122.79 101.676C122.401 101.676 122.063 101.452 121.899 101.13C121.81 100.949 121.792 100.74 121.761 100.542C121.525 99.182 121.211 98.3267 120.815 97.9866C120.316 97.5555 119.416 97.3395 117.247 97.3395H115.767C114.25 97.3395 113.379 98.355 113.37 100.322C113.365 101.636 113.377 104.609 113.37 106.039C113.361 108.001 113.421 108.864 113.577 109.535C113.73 110.205 114.079 110.698 114.635 110.954C115.042 111.141 115.559 111.24 116.16 111.292C116.758 111.343 117.718 111.397 119.024 111.367C123.092 111.267 125.11 110.327 126.743 106.12C126.922 105.727 127.096 105.018 127.949 105.02C128.548 105.02 129.049 105.458 128.806 106.749C128.674 107.453 127.778 111.993 127.55 112.758C127.42 113.206 127.021 113.555 126.384 113.555C124.033 113.553 106.389 113.555 103.621 113.555C103.091 113.555 102.622 113.279 102.622 112.714C102.622 112.216 102.915 111.865 103.621 111.865C104.678 111.865 105.448 110.967 105.842 110.44C106.342 109.771 106.648 108.018 106.648 105.197V88.1127C106.666 85.323 106.474 83.5864 106.029 82.8993C105.68 82.3638 105.175 81.6641 103.606 81.6641C103.042 81.6641 102.622 81.2964 102.622 80.8317C102.622 80.1745 103.204 80.001 103.586 80.001H122.064L122.064 80.001ZM162.523 113.555C160.813 113.555 159.423 112.101 159.423 110.219V97.0257C159.423 95.6349 159.616 94.1897 158.076 93.7984C157.745 93.7137 157.153 93.6665 156.871 93.5326C156.576 93.3923 156.38 93.0961 156.38 92.7501C156.385 92.4249 156.596 92.1071 156.901 91.9676C157.116 91.8688 157.429 91.8471 157.658 91.8139C158.714 91.6518 163.437 90.7533 164.78 90.4253C165.221 90.3273 165.672 90.3743 165.716 90.8647C165.726 91.3719 165.739 92.1383 165.747 92.4834C165.767 93.1848 166.396 93.3856 166.971 92.8538C167.209 92.6228 167.592 92.2674 167.747 92.125C168.473 91.4981 169.189 91.0343 170.025 90.6111C170.517 90.3574 171.052 90.2065 171.659 90.2065C172.661 90.2065 173.484 90.5176 174.141 91.1362C174.793 91.7583 175.122 92.4965 175.122 93.3584C175.122 94.1852 174.88 94.9413 174.397 95.6275C173.916 96.3186 173.348 96.7833 172.692 97.0257C172.417 97.1283 172.194 97.1794 172.023 97.1794C171.714 97.1794 171.405 97.0605 171.092 96.821C170.196 96.0971 169.339 95.7341 168.511 95.7341C167.925 95.7341 167.417 95.8972 166.987 96.2234C165.826 97.1077 165.723 98.4038 165.723 99.7088V108.437C165.723 109.96 165.858 111.64 167.682 111.871C168.335 111.953 168.552 112.273 168.552 112.711C168.552 113.147 168.18 113.555 167.712 113.555H162.524H162.523ZM146.631 91.9874C146.631 91.8188 146.616 91.5737 146.689 91.4123C146.747 91.2803 146.86 91.1701 147.003 91.1097C147.169 91.0344 147.438 91.0362 147.618 91.0165C147.82 90.9919 148.026 90.9691 148.237 90.9408C149.539 90.7807 150.606 90.6432 151.43 90.5317C151.679 90.5007 152.058 90.4186 152.319 90.4186C152.577 90.4186 152.8 90.5761 152.895 90.8051C152.96 90.9588 152.951 91.1324 152.951 91.3002V108.913C152.998 110.311 153.288 111.78 154.912 111.865H154.944C154.987 111.865 155.031 111.865 155.073 111.873H155.107L155.104 111.88C155.493 111.954 155.788 112.269 155.788 112.707C155.788 113.143 155.414 113.552 154.944 113.552L149.922 113.547C149.868 113.547 149.812 113.552 149.755 113.552C148.951 113.552 148.218 113.243 147.664 112.734C147.151 112.327 146.907 111.66 146.518 111.516C146.05 111.343 145.312 111.576 144.206 112.296C143.344 112.847 142.027 113.394 141.339 113.63C140.654 113.872 139.91 113.992 139.118 113.992C136.986 113.992 135.342 113.367 134.189 112.107C133.034 110.853 132.445 109.189 132.445 107.126V95.3843C132.445 94.4546 132.333 93.8436 132.146 93.5524C131.958 93.2592 131.518 93.063 130.826 92.9585C130.56 92.9171 130.193 92.8992 129.937 92.7795C129.655 92.6438 129.462 92.3562 129.462 92.0167C129.466 91.7035 129.674 91.3925 129.969 91.2559C130.181 91.1568 130.464 91.1766 130.693 91.1672C131.68 91.1191 132.798 91.0475 134.029 90.8939C135.327 90.7326 136.398 90.5921 137.221 90.4799C137.471 90.4496 137.85 90.3669 138.109 90.3669C138.37 90.3669 138.592 90.5253 138.687 90.7495C138.756 90.9069 138.747 91.0851 138.747 91.2493V105.833C138.747 107.279 139.077 108.348 139.717 109.036C140.352 109.722 141.204 110.068 142.27 110.068C143.158 110.068 144.068 109.809 144.997 109.293C146.135 108.671 146.631 107.553 146.651 106.584C146.631 101.723 146.62 96.8513 146.631 91.9874H146.631ZM195 96.2809V107.823C195 108.855 195.13 109.604 195.39 110.068C195.606 110.466 195.882 110.69 196.212 110.753C196.74 110.837 197.147 111.299 197.147 111.853C197.147 112.267 196.921 112.629 196.587 112.816V112.82C195.643 113.367 194.519 113.778 193.349 113.787C192.285 113.787 191.391 113.536 190.676 113.06C189.864 112.519 189.46 111.582 188.328 111.582C187.344 111.582 186.684 112.406 185.946 112.923C185.17 113.462 184.394 113.787 183.15 113.787C181.264 113.787 179.714 113.127 178.491 111.802C177.279 110.475 176.666 109.02 176.666 107.437C176.666 104.856 177.993 103.031 180.645 101.962C182.125 101.381 183.612 100.787 185.09 100.156C186.185 99.6844 187.081 99.2789 187.772 98.9302L187.779 98.9265C188.446 98.6218 188.91 97.9486 188.91 97.1699V97.0945V96.4385C188.91 94.0872 188.202 92.0979 186.159 92.0188C182.518 91.8782 182.214 95.0197 181.763 97.3578C181.592 98.2261 180.854 98.7106 180.078 98.7106C179.49 98.7106 178.871 98.489 178.218 98.0411C177.422 97.4906 177.422 96.9032 177.422 96.281C177.422 92.6201 181.414 89.7628 186.168 89.8277C191.62 89.9004 195 91.1891 195 96.281L195 96.2809ZM188.91 106.088L188.903 102.167L188.906 102.142V102.119C188.906 101.569 188.463 101.127 187.915 101.127C187.721 101.127 187.539 101.182 187.39 101.278L185.443 102.378C183.601 103.424 182.637 105.099 182.672 106.839C182.709 108.559 184.073 109.96 185.779 109.96C187.119 109.96 188.264 109.115 188.708 107.928C188.937 107.317 188.91 106.726 188.91 106.088L188.91 106.088ZM183.184 132.978C183.184 131.599 183.374 130.168 181.849 129.782C181.522 129.695 180.938 129.65 180.654 129.517C180.363 129.378 180.17 129.079 180.173 128.742C180.173 128.421 180.384 128.105 180.685 127.966C180.896 127.868 181.208 127.85 181.432 127.816C182.48 127.656 187.219 126.763 188.545 126.438C188.984 126.342 189.431 126.388 189.476 126.872C189.589 133.218 189.513 139.962 189.479 146.326C189.493 147.058 189.766 147.305 190.051 147.407C190.418 147.533 190.86 147.335 191.349 146.662C192.856 144.665 194.36 142.67 195.868 140.672C196.37 140.045 196.862 138.952 195.601 138.698C194.604 138.497 194.63 136.935 195.788 136.935H201.862C202.735 136.935 203.021 137.344 203.021 137.83C203.021 139.093 201.619 138.309 199.353 140.835L195.871 144.443C194.831 145.476 194.419 146.164 195.434 147.376C197.006 149.549 199.925 153.461 200.584 154.266C202.065 156.071 203.661 158.216 205.322 158.271H205.352C205.393 158.271 205.435 158.274 205.476 158.279L205.509 158.282V158.285C205.885 158.359 206.172 158.672 206.172 159.106C206.172 159.539 205.818 159.935 205.359 159.935H199.356C197.886 159.935 197.135 159.106 196.394 158.052L190.815 150.138C190.36 149.379 189.463 149.574 189.454 150.568C189.442 153.48 189.429 156.389 189.429 159.295V159.314C189.429 159.656 189.152 159.94 188.803 159.94L188.782 159.936V159.94H183.816H183.808C183.467 159.94 183.187 159.66 183.187 159.314L183.19 159.295H183.187C183.187 150.652 183.184 141.625 183.184 132.977L183.184 132.978ZM163.14 159.289V159.306C163.14 159.654 162.86 159.939 162.511 159.939H162.484H157.474H157.47C157.125 159.939 156.837 159.654 156.837 159.306V142.796C156.837 141.691 156.718 140.96 156.497 140.597C156.322 140.314 155.981 140.144 155.436 140.081C155.002 140.033 154.524 140.11 154.111 139.939C153.816 139.819 153.611 139.538 153.594 139.203C153.578 138.892 153.769 138.568 154.056 138.414C154.19 138.345 154.351 138.321 154.511 138.308C155.769 138.13 160.096 137.35 162.173 136.91C162.616 136.816 163.066 136.857 163.11 137.351C163.172 139.025 163.944 139.466 166.087 138.065C166.947 137.514 167.763 137.196 168.449 136.958C169.139 136.718 169.876 136.599 170.67 136.599C172.807 136.599 174.451 137.224 175.602 138.481C176.758 139.739 177.332 141.4 177.332 143.466C177.332 145.963 177.338 154.819 177.338 154.819C177.338 156.34 177.489 158.158 179.297 158.254H179.331C179.372 158.254 179.413 158.254 179.457 158.261L179.492 158.265L179.489 158.267C179.878 158.34 180.172 158.658 180.172 159.091C180.172 159.532 179.791 159.963 179.331 159.939L179.263 159.932H174.306C174.253 159.939 174.197 159.939 174.14 159.939C172.431 159.939 171.034 158.538 171.034 156.815V144.757C171.034 143.311 170.714 142.242 170.076 141.555C169.441 140.867 168.59 140.521 167.518 140.521C166.631 140.521 165.724 140.779 164.795 141.301C163.657 141.92 163.162 143.034 163.14 144.002V159.289L163.14 159.289ZM116.57 140.911C117.796 140.677 118.83 140.242 119.602 139.604C120.811 138.605 121.41 136.837 121.41 134.695C121.41 132.483 120.791 130.861 119.55 129.826C118.816 129.208 117.821 128.69 116.649 128.463C115.961 128.337 115.259 128.337 114.561 128.391C113.38 128.485 113.415 129.034 113.415 130.175V138.386C113.415 138.789 113.374 139.244 113.494 139.635C113.682 140.26 114.188 140.756 114.831 140.929C115.367 141.068 116.023 141.009 116.57 140.911L116.57 140.911ZM116.909 157.748C118.484 157.673 119.844 157.155 120.894 156.202C122.268 154.957 122.962 153.095 122.962 150.606C122.962 148.05 122.182 146.335 120.611 145.1C119.671 144.361 118.468 143.833 117.133 143.535C116.429 143.377 115.401 143.284 114.722 143.515C114.127 143.717 113.66 144.204 113.487 144.814C113.392 145.147 113.415 145.495 113.415 145.836L113.346 152.052C113.323 154.017 113.427 155.351 113.58 156.02C113.733 156.692 114.078 157.189 114.638 157.447C115.347 157.776 116.143 157.784 116.909 157.748V157.748ZM116.994 126.388C120.712 126.388 123.468 126.904 125.334 128.063C126.36 128.701 127.135 129.472 127.634 130.423C128.134 131.372 128.383 132.555 128.383 133.972C128.383 136.043 127.559 137.775 125.904 139.153C124.992 139.909 123.987 140.637 122.862 141.075C122.678 141.148 122.541 141.247 122.541 141.45C122.541 141.752 122.821 141.82 123.055 141.875C124.904 142.331 126.454 143.062 127.661 144.078C129.455 145.586 130.345 147.599 130.345 150.09C130.345 151.884 129.952 153.424 129.159 154.7C128.365 155.98 127.248 157.048 125.799 157.913C124.562 158.636 123.098 159.165 121.41 159.494C120.166 159.734 118.607 159.94 115.256 159.94C111.78 159.939 103.915 159.939 103.616 159.937C103.296 159.936 102.625 159.814 102.621 159.14C102.619 158.565 103.064 158.302 103.495 158.261C106.106 158.015 106.652 155.38 106.652 152.218V134.531C106.652 131.733 106.473 129.98 106.03 129.291C105.681 128.756 105.256 128.245 104.049 128.069C103.577 128.001 102.625 127.935 102.625 127.159C102.625 126.376 103.42 126.388 103.612 126.388C105.911 126.388 111.303 126.382 114.81 126.388H116.994ZM151.161 142.595V154.137C151.161 155.169 151.291 155.918 151.551 156.382C151.767 156.78 152.043 157.004 152.373 157.066C152.901 157.151 153.308 157.613 153.308 158.167C153.308 158.581 153.082 158.942 152.748 159.13V159.134C151.804 159.681 150.68 160.092 149.511 160.101C148.446 160.101 147.552 159.849 146.837 159.373C146.025 158.833 145.621 157.896 144.489 157.896C143.505 157.896 142.845 158.72 142.107 159.237C141.331 159.776 140.555 160.101 139.311 160.101C137.425 160.101 135.875 159.441 134.652 158.116C133.44 156.789 132.827 155.334 132.827 153.751C132.827 151.17 134.154 149.345 136.806 148.276C138.286 147.694 139.773 147.1 141.251 146.47C142.347 145.998 143.242 145.593 143.933 145.244L143.94 145.24C144.607 144.936 145.071 144.262 145.071 143.484V143.408V142.752C145.071 140.401 144.363 138.412 142.32 138.333C138.679 138.192 138.376 141.333 137.924 143.672C137.753 144.54 137.015 145.024 136.239 145.024C135.651 145.024 135.032 144.803 134.379 144.355C133.583 143.804 133.583 143.217 133.583 142.595C133.583 138.934 137.575 136.077 142.329 136.141C147.782 136.214 151.161 137.503 151.161 142.595L151.161 142.595ZM145.071 152.402L145.065 148.481L145.067 148.456V148.432C145.067 147.883 144.624 147.441 144.077 147.441C143.882 147.441 143.7 147.496 143.551 147.591L141.604 148.692C139.762 149.738 138.798 151.412 138.833 153.153C138.871 154.873 140.234 156.273 141.94 156.273C143.28 156.273 144.425 155.429 144.869 154.242C145.098 153.631 145.071 153.04 145.071 152.402L145.071 152.402ZM151.078 142.595V154.137C151.078 155.169 151.207 155.918 151.467 156.382C151.683 156.78 151.96 157.004 152.29 157.066C152.818 157.151 153.225 157.613 153.225 158.167C153.225 158.581 152.998 158.942 152.665 159.13V159.134C151.721 159.681 150.596 160.092 149.427 160.101C148.363 160.101 147.469 159.849 146.753 159.373C145.942 158.833 145.537 157.896 144.406 157.896C143.422 157.896 142.762 158.72 142.024 159.237C141.248 159.776 140.472 160.101 139.227 160.101C137.342 160.101 135.792 159.441 134.569 158.116C133.357 156.789 132.744 155.334 132.744 153.751C132.744 151.17 134.07 149.345 136.722 148.276C138.202 147.694 139.689 147.1 141.168 146.47C142.263 145.998 143.159 145.593 143.85 145.244L143.857 145.24C144.524 144.936 144.988 144.262 144.988 143.484V143.408V142.752C144.988 140.401 144.28 138.412 142.237 138.333C138.596 138.192 138.292 141.333 137.841 143.672C137.67 144.54 136.932 145.024 136.156 145.024C135.567 145.024 134.949 144.803 134.296 144.355C133.5 143.804 133.5 143.217 133.5 142.595C133.5 138.934 137.492 136.077 142.246 136.141C147.698 136.214 151.078 137.503 151.078 142.595L151.078 142.595ZM144.988 152.402L144.981 148.481L144.984 148.456V148.432C144.984 147.883 144.541 147.441 143.993 147.441C143.799 147.441 143.617 147.496 143.468 147.591L141.521 148.692C139.679 149.738 138.715 151.412 138.75 153.153C138.787 154.873 140.151 156.273 141.857 156.273C143.196 156.273 144.342 155.429 144.786 154.242C145.015 153.631 144.988 153.04 144.988 152.402L144.988 152.402Z" fill="#858585"/>
<path fill-rule="evenodd" clip-rule="evenodd" d="M15.4703 114.178C13.4847 112.014 11.7585 109.348 13.6316 107.082C15.6087 104.696 17.0173 102.993 18.9952 100.606L31.8961 97.2949H47.978L60.8741 100.606L66.1348 106.962C68.6635 110.018 66.8523 111.588 64.1663 114.515C55.4854 123.967 39.935 140.909 39.935 140.909L15.4703 114.178ZM61.6657 113.519C61.6657 113.519 58.2377 114.245 56.4868 114.625C54.4731 115.066 53.3881 114.483 52.8092 113.265C52.2509 112.095 50.5248 108.613 50.5248 108.613C50.5248 108.613 50.997 112.179 51.0961 113.373C51.1686 114.258 51.4091 115.328 48.7816 116.375C46.9299 117.112 42.0623 118.716 42.0623 118.716C42.0623 118.716 45.727 118.257 46.6866 118.153C50.2835 117.762 49.9948 119.596 49.2549 121.03C47.6861 124.065 42.1745 134.289 42.1745 134.289C47.5606 126.638 52.515 116.912 61.6657 113.519V113.519ZM37.9981 134.289C37.9981 134.289 32.4867 124.066 30.918 121.03C30.1769 119.596 29.8883 117.762 33.486 118.153C34.4467 118.257 38.1092 118.716 38.1092 118.716C38.1092 118.716 33.2427 117.112 31.3902 116.375C28.7627 115.328 29.004 114.258 29.0767 113.373C29.1747 112.179 29.648 108.613 29.648 108.613C29.648 108.613 27.9208 112.095 27.3636 113.265C26.7847 114.483 25.6987 115.066 23.6858 114.625C21.934 114.245 18.5071 113.519 18.5071 113.519C27.6568 116.912 32.612 126.638 37.998 134.289L37.9981 134.289ZM31.7005 106.139L37.141 107.451C38.1707 107.699 38.9446 108.548 39.0994 109.596L40.0874 114.467L41.0724 109.596C41.2279 108.548 42.0022 107.699 43.0326 107.451L48.4724 106.139H31.7005ZM50.8057 105.468L56.0881 104.581C56.9261 104.44 57.7784 104.717 58.3743 105.323L62.3718 109.402C61.8578 108.469 60.705 106.628 59.845 105.271C59.221 104.286 59.3313 103.009 60.1138 102.143L60.554 101.655L50.8058 105.468L50.8057 105.468ZM29.3661 105.468L24.0838 104.581C23.2465 104.44 22.3942 104.717 21.7983 105.323L17.8011 109.402C18.314 108.469 19.4669 106.628 20.3277 105.271C20.9527 104.286 20.8405 103.009 20.058 102.143L19.6179 101.655L29.3661 105.468V105.468Z" fill="#FEFEFE"/>
</g>
<defs>
<clipPath id="clip0_984_929">
<rect width="279" height="80.1726" fill="white" transform="translate(0 80)"/>
</clipPath>
</defs>
</svg>
