<svg width="279" height="239" viewBox="0 0 279 239" fill="none" xmlns="http://www.w3.org/2000/svg">
<g clip-path="url(#clip0_984_944)">
<path fill-rule="evenodd" clip-rule="evenodd" d="M52.1633 119.793C52.1438 119.269 52.1458 118.746 52.1448 118.24C52.1413 116.378 52.1415 114.516 52.1415 112.654H49.5877L49.6491 138.088C49.6663 145.255 45.0164 149.899 37.8538 149.899C30.6561 149.899 26.0708 145.194 26.0708 138.027V112.654H23.5784V137.963C23.5784 145.168 18.9225 149.823 11.7196 149.823C4.54009 149.823 0 145.097 0 137.963V100.833C0 93.6851 4.68153 89.1434 11.7729 89.001L11.8409 89L52.7629 89.0764C67.5504 89.104 75.7074 97.7375 75.7074 112.413C75.7074 114.625 75.6726 116.87 75.712 119.084C75.7366 119.613 75.7377 120.142 75.7394 120.654C75.7451 122.518 75.7446 124.382 75.7446 126.247H78.2976L78.2365 100.813C78.2194 93.648 82.8549 89.0026 90.0195 89.0026C97.2143 89.0026 101.815 93.7043 101.815 100.874V126.247H104.308V100.951C104.308 93.743 108.954 89.079 116.166 89.079C123.351 89.079 127.873 93.8213 127.873 100.951V138.067C127.873 145.252 123.14 149.915 115.964 149.901L75.1102 149.825C60.323 149.797 52.1659 141.163 52.1659 126.487C52.1659 124.263 52.1939 122.018 52.1633 119.793Z" fill="#373435"/>
<path fill-rule="evenodd" clip-rule="evenodd" d="M115.976 143.7C119.777 143.707 121.67 141.755 121.67 138.069V100.952C121.67 97.177 119.84 95.2828 116.166 95.2828C112.391 95.2828 110.51 97.1773 110.51 100.952V132.45H101.269C97.4936 132.45 95.6127 130.544 95.6127 126.718V100.876C95.6127 97.1009 93.7437 95.207 90.0189 95.207C86.2948 95.207 84.4304 97.0752 84.439 100.8L84.5155 132.45H75.2364C71.4357 132.45 69.5416 130.544 69.5416 126.718C69.5416 112.108 69.5045 127.024 69.5045 112.415C69.5045 100.988 63.9245 95.2802 52.751 95.2802L11.8972 95.2041C8.09654 95.2802 6.20264 97.1617 6.20264 100.835V137.965C6.20264 141.74 8.04577 143.621 11.7191 143.621C15.4818 143.621 17.3757 141.74 17.3757 137.965V106.454H26.6041C30.3792 106.454 32.2734 108.373 32.2734 112.186V138.028C32.2734 141.804 34.1292 143.697 37.8536 143.697C41.578 143.697 43.4465 141.829 43.4465 138.105L43.3701 106.454H52.6366C56.4373 106.454 58.3439 108.373 58.3439 112.186C58.3439 126.796 58.3685 111.88 58.3685 126.489C58.3685 137.916 63.9485 143.603 75.1216 143.624L115.976 143.7Z" fill="#8F8F8F"/>
<path fill-rule="evenodd" clip-rule="evenodd" d="M180.524 115.553H174.08L172.249 101.25L166.252 115.553H163.695L157.971 101.25L155.866 115.553H149.423L153.632 90.709H160.038L165.054 103.969L170.356 90.709H176.8L180.524 115.553ZM208.26 115.553H201.369L199.768 111.233H190.859L189.152 115.553H182.336L191.877 90.709H198.917L208.26 115.553ZM198.055 106.316L195.354 98.382L192.616 106.316H198.055ZM234.338 115.553H225.995L217.614 104.789V115.553H211.17V90.709H217.614V100.946L225.473 90.709H233.407L223.573 102.467L234.338 115.553ZM251.39 115.553H237.273V90.709H251.39V96.073H243.717V100.356H250.981V105.72H243.717V110.19H251.39V115.553Z" fill="#373435"/>
<path fill-rule="evenodd" clip-rule="evenodd" d="M266.455 94.3906C266.455 95.2512 266.162 95.9707 265.572 96.5553C264.987 97.1454 264.268 97.438 263.413 97.438C262.564 97.438 261.85 97.1398 261.265 96.5494C260.675 95.9593 260.383 95.2398 260.383 94.3906C260.383 93.5472 260.675 92.8332 261.265 92.2489C261.85 91.6585 262.564 91.3662 263.413 91.3662C264.256 91.3662 264.976 91.6585 265.566 92.2489C266.157 92.8332 266.455 93.5472 266.455 94.3906ZM266.151 115.552H260.72V100.271H266.151V115.552ZM278.99 104.69H275.921V115.552H270.49V104.69H268.702V100.271H270.49V95.6839H275.921V100.271H278.99V104.69Z" fill="#373435"/>
<path fill-rule="evenodd" clip-rule="evenodd" d="M187.179 120.367L179.252 145.212H172.665L168.139 130.815L163.39 145.212H156.822L149.423 120.367H156.17L160.479 136.421L165.737 120.367H170.864L175.756 136.421L180.449 120.367H187.179ZM241.361 145.212H233.352L227.206 135.713V145.212H220.762V120.367H230.795C233.731 120.367 235.897 121.249 237.306 123.012C238.442 124.433 239.014 126.103 239.014 128.021C239.014 130.225 238.362 131.982 237.052 133.292C236.214 134.131 235.059 134.714 233.594 135.043L241.361 145.212ZM232.309 128.382C232.309 127.494 231.986 126.749 231.34 126.141C230.739 125.569 229.758 125.284 228.411 125.284H227.206V131.504H228.411C229.77 131.504 230.751 131.218 231.34 130.648C231.986 130.027 232.309 129.27 232.309 128.382ZM267.327 145.212H258.983L250.602 134.447V145.212H244.158V120.367H250.602V130.605L258.461 120.367H266.395L256.562 132.125L267.327 145.212Z" fill="#373435"/>
<path fill-rule="evenodd" clip-rule="evenodd" d="M214.587 129.375L216.071 128.099C215.651 126.752 214.463 123.939 212.973 122.653C212.312 122.749 211.832 123.098 211.195 123.325L209.417 123.95C207.792 122.898 207.249 122.489 205.308 121.555L204.732 117.758C202.459 117.083 200.25 117.492 198.426 117.644L197.795 121.436C196.376 122.265 195.916 121.889 193.655 123.817L190.124 122.38C189.225 123.006 186.805 126.643 186.961 127.714C187.078 128.2 188.676 129.266 189.117 129.619C190.273 130.545 189.553 130.452 189.547 132.556C189.544 133.387 189.653 133.873 189.701 134.604C189.757 135.461 188.067 136.236 186.783 137.332C186.879 138.61 188.551 141.528 189.745 142.843C190.87 142.779 192.783 141.485 193.425 141.678C193.719 141.766 194.844 142.697 195.295 142.968C196.097 143.45 196.846 143.719 197.674 144.108C197.621 144.63 197.941 147.215 198.117 147.804C200.086 148.555 202.909 147.996 204.397 147.955C204.751 146.737 204.676 145.144 205.139 144.005C206.882 143.737 208.407 142.253 209.135 141.878L212.858 143.143C214.353 141.271 215.192 140.077 216.027 137.692L213.091 135.298C213.062 134.558 213.289 133.563 213.289 132.702C213.29 132.072 213.074 130.742 213.236 130.356L214.587 129.375ZM204.69 125.896C208.484 127.719 210.081 132.271 208.259 136.065C206.436 139.858 201.883 141.456 198.09 139.633C194.297 137.81 192.699 133.258 194.522 129.465C196.344 125.671 200.897 124.074 204.69 125.896Z" fill="#8F8F8F"/>
<path fill-rule="evenodd" clip-rule="evenodd" d="M136.079 89H141.639V149.9H136.079V89Z" fill="#373435"/>
</g>
<defs>
<clipPath id="clip0_984_944">
<rect width="279" height="60.9278" fill="white" transform="translate(0 89)"/>
</clipPath>
</defs>
</svg>
