<svg width="279" height="239" viewBox="0 0 279 239" fill="none" xmlns="http://www.w3.org/2000/svg">
<path d="M165.657 190.345C165.657 193.358 163.751 194.798 161.377 194.798H155.917V182.278H159.955V185.891H161.377C163.77 185.891 165.657 187.307 165.657 190.345ZM166.694 166.99C166.694 163.977 164.788 162.536 162.414 162.536H156.954V175.056H160.992V171.443H162.414C164.807 171.443 166.694 170.028 166.694 166.99ZM163.336 166.986C163.336 167.969 162.545 168.231 161.633 168.231H160.804V165.741H161.618C162.523 165.741 163.336 165.991 163.336 166.986ZM130.034 175.056H122.308V162.536H129.929V166.288H126.347V167.294H129.702V170.156H126.347V171.305H130.034L130.034 175.056ZM170.688 194.798H166.649V182.278H170.688V194.798ZM153.102 194.785H149.064V185.664H146.312V187.81C146.312 189.503 146.261 190.719 146.161 191.459C146 192.627 145.679 193.486 145.197 194.034C144.624 194.678 143.765 195 142.62 195C141.967 195 141.556 194.899 140.842 194.696L140.83 191.299C141.754 191.299 142.504 191.23 142.518 189.484L142.532 187.739L142.517 182.266H153.102L153.102 194.785ZM132.796 182.107C136.532 182.122 139.259 184.723 139.271 188.528C139.259 192.33 136.524 194.916 132.796 194.928C129.068 194.916 126.332 192.33 126.321 188.528C126.335 184.728 129.064 182.122 132.796 182.107ZM132.796 191.392C134.476 191.382 135.499 190.185 135.508 188.529C135.502 186.87 134.482 185.659 132.796 185.648C131.111 185.66 130.093 186.875 130.083 188.531C130.094 190.187 131.116 191.381 132.796 191.392ZM154.108 175.056H150.07V162.536H154.108V175.056ZM147.59 175.058C146.217 175.059 144.844 175.059 143.471 175.06L142.868 170.557L140.985 175.056C140.259 175.059 139.509 175.054 138.783 175.056L136.909 170.547L136.294 175.058C134.919 175.057 133.543 175.057 132.168 175.056L134.433 162.536C135.696 162.536 136.959 162.536 138.221 162.536L139.894 168.283L141.706 162.536C142.967 162.536 144.228 162.536 145.489 162.536L147.59 175.058ZM120.58 166.239H117.817V175.056H113.778V166.239H111.015V162.536H120.58L120.58 166.239ZM182.73 155.651L178.856 155.651L178.363 154.256L174.269 154.258L173.784 155.649L169.853 155.651L174.734 143.131H177.85L182.73 155.651ZM177.433 151.618L176.333 148.501H176.272L175.187 151.618H177.433ZM133.196 155.623L129.322 155.624L128.829 154.228L124.735 154.23L124.25 155.622L120.319 155.623L125.199 143.104H128.316L133.196 155.623ZM127.898 151.59L126.798 148.474H126.738L125.653 151.59H127.898ZM147.298 153.849H146.179L143.101 149L146.991 143.131H142.395L139.116 148.05H139.055V143.131H135.017V155.651H139.055V150.339H139.116L142.501 155.651H144.229V158.661H147.298V155.651H147.323L147.298 155.612V153.849ZM195 155.651H190.962V151.036H188.264V155.651H184.226V143.131H188.264V147.459H190.962V143.131H195V155.651ZM169.618 146.833H166.855V155.651H162.816V146.833H160.054V143.131H169.618L169.618 146.833ZM158.251 155.334C157.299 155.649 155.495 155.835 154.505 155.835C152.506 155.835 150.943 155.227 149.818 154.011C148.743 152.855 148.206 151.305 148.206 149.361C148.206 147.549 148.683 146.07 149.637 144.926C150.773 143.566 152.43 142.887 154.61 142.887C155.624 142.887 157.237 143.062 158.221 143.28V146.589C157.559 146.275 156.016 146.106 155.303 146.106C153.712 146.106 152.455 147.293 152.455 149.254C152.455 151.41 153.598 152.491 155.379 152.491C156.121 152.491 157.549 152.271 158.251 152.008V155.334ZM96.2815 153.849H95.1624L92.0843 149L95.9744 143.131H91.3785L88.0987 148.05H88.0384V143.131H84V155.651H88.0384V150.339H88.0987L91.484 155.651H93.2124V158.661H96.2815V155.651H96.306L96.2815 155.612V153.849ZM120.033 152.092C120.033 155.356 116.671 155.865 114.578 155.865C113.106 155.865 112.73 155.687 111.303 155.276V152.021C112.388 152.531 112.928 152.861 114.096 152.861C114.706 152.861 115.784 152.679 115.784 151.716C115.784 150.697 114.91 150.5 114.217 150.5H112.258V148.032H114.172C114.778 148.032 115.709 147.928 115.709 146.977C115.709 146.005 114.495 145.921 113.9 145.921C112.816 145.921 112.597 146.146 111.574 146.566V143.4C112.77 143.078 113.308 142.917 114.774 142.917C116.831 142.917 119.702 143.466 119.702 146.565C119.702 148.002 118.834 149.068 117.653 149.266V149.337C118.94 149.476 120.033 150.46 120.033 152.092ZM109.755 155.651L105.881 155.651L105.388 154.256L101.294 154.258L100.809 155.649L96.8782 155.651L101.759 143.131H104.875L109.755 155.651ZM104.458 151.618L103.358 148.501H103.298L102.212 151.618H104.458ZM125.52 194.782H120.698L118.332 189.113H118.241V194.782H114.353V189.113H114.263L111.897 194.782H107.075L110.843 188.129L107.527 182.263H111.897L114.263 187.539H114.353V182.263H118.241V187.539H118.332L120.698 182.263H125.068L121.752 188.129L125.52 194.782ZM162.299 190.349C162.299 189.365 161.508 189.104 160.596 189.104H159.767V191.594H160.581C161.486 191.594 162.299 191.344 162.299 190.349Z" fill="#858585"/>
<path fill-rule="evenodd" clip-rule="evenodd" d="M176.648 119.05H102.379C120.706 144.148 158.323 144.148 176.648 119.05Z" fill="#858585"/>
<path fill-rule="evenodd" clip-rule="evenodd" d="M94.942 79.6117H132.957L145.218 91.3183H93.4229C93.4124 93.16 93.519 95.0227 93.7256 96.8538H151.014L159.1 104.575C161.349 106.719 160.828 108.56 156.771 108.56H96.6204C97.4084 110.575 98.3326 112.524 99.3805 114.386H179.644C196.781 83.8721 175.119 45 139.511 45C124.958 45 111.979 51.8029 103.533 62.4322C107.374 62.6713 111.846 63.232 114.643 64.1932C117.448 65.1533 120.415 67.6325 121.515 68.682L127.231 74.1388H96.7433C96.0313 75.9122 95.4298 77.7395 94.9416 79.6118L94.942 79.6117Z" fill="#CDCDCD"/>
<path fill-rule="evenodd" clip-rule="evenodd" d="M179.645 114.386H99.3811C100.29 116.002 101.29 117.561 102.378 119.051L176.648 119.05C177.739 117.561 178.736 116.004 179.645 114.386ZM114.642 64.1959C111.847 63.2357 107.372 62.6768 103.532 62.4349C100.737 65.953 98.4355 69.8936 96.7385 74.1444H127.229L121.51 68.6876C120.417 67.6324 117.447 65.1609 114.642 64.1959ZM132.96 79.6118H94.9425C93.965 83.3518 93.4387 87.2742 93.4216 91.3185H145.216L132.96 79.6118ZM151.015 96.8539H93.7267C94.1921 100.939 95.182 104.867 96.6249 108.561H156.775C160.827 108.561 161.35 106.716 159.104 104.575L151.016 96.8539L151.015 96.8539Z" fill="white"/>
</svg>
