<svg width="279" height="239" viewBox="0 0 279 239" fill="none" xmlns="http://www.w3.org/2000/svg">
<g clip-path="url(#clip0_1016_586)">
<path d="M253.695 63.6611H218.37L212.098 91.9121H258.598L279 63.6611H253.695Z" fill="#A7A7A7"/>
<path d="M35.3256 91.9121L29.1256 120.221L22.8535 148.472H58.2512L64.4512 120.221L70.7233 91.9121H35.3256Z" fill="#8F8F8F"/>
<path d="M106.049 91.9121L99.8488 120.221L93.5767 148.472H128.974L135.174 120.221L141.374 91.9121H106.049Z" fill="#8B8B8B"/>
<path d="M205.898 120.221L212.098 91.9121H176.772L170.5 120.221L168.553 129.1C166.174 139.823 175.186 148.472 188.523 148.472H246.126L266.528 120.221H205.898Z" fill="#8B8B8B"/>
<path d="M35.3256 91.9121H0L20.4023 63.6611H41.5977L35.3256 91.9121Z" fill="#8F8F8F"/>
<path d="M70.7234 91.9121H35.3257L41.5978 63.6611H76.9234L70.7234 91.9121Z" fill="#8F8F8F"/>
<path d="M106.049 91.9121H70.7231L76.9231 63.6611H112.321L106.049 91.9121Z" fill="#8B8B8B"/>
<path d="M141.374 91.9121H106.049L112.321 63.6611H147.646L141.374 91.9121Z" fill="#8F8F8F"/>
<path d="M176.772 91.9121H141.375L147.647 63.6611H182.972L176.772 91.9121Z" fill="#8B8B8B"/>
<path d="M212.098 91.9121H176.772L178.718 83.0332C181.098 72.367 193.858 63.6611 207.267 63.6611H218.37L212.098 91.9121Z" fill="#8B8B8B"/>
<path d="M102.516 163.692H97.614L97.7582 162.885H108.716L108.572 163.692H103.598L101.507 174.82H100.426L102.516 163.692ZM110.663 166.114H111.672L111.168 168.593C112.249 167.036 114.195 165.883 116.286 165.998L116.07 166.921H115.998C113.619 166.921 111.24 168.42 110.663 171.245L110.014 174.82H109.005L110.663 166.114ZM125.947 171.533L126.163 170.553C125.298 170.38 124.216 170.15 122.702 170.15C120.54 170.15 119.17 171.014 118.881 172.225C118.665 173.494 119.963 174.243 121.549 174.243C123.64 174.243 125.658 173.148 125.947 171.533ZM117.872 172.225C118.161 170.438 120.251 169.4 122.919 169.4C124.361 169.4 125.298 169.573 126.307 169.804L126.379 169.4C126.667 167.67 125.586 166.748 123.423 166.748C122.198 166.748 121.116 167.036 120.035 167.44L119.819 166.748C121.044 166.287 122.198 165.998 123.64 165.998C125.081 165.998 126.091 166.287 126.74 166.921C127.316 167.498 127.533 168.305 127.316 169.4L126.307 174.82H125.37L125.586 173.378C124.721 174.185 123.279 174.993 121.333 174.993C119.386 174.993 117.512 174.07 117.872 172.225ZM133.084 166.114H134.093L133.805 167.728C134.67 166.69 136.04 165.883 137.914 165.883C140.509 165.883 141.735 167.382 141.374 169.515L140.365 174.82H139.356L140.365 169.631C140.654 167.843 139.716 166.69 137.626 166.69C135.607 166.69 133.733 167.959 133.444 169.804L132.507 174.82H131.498L133.084 166.114ZM144.835 173.724L145.556 173.032C146.565 173.782 147.719 174.185 149.088 174.185C150.458 174.185 151.684 173.551 151.9 172.513C152.044 171.476 150.819 171.13 149.449 170.784C147.863 170.38 146.061 169.919 146.349 168.362C146.637 166.921 148.223 165.941 150.242 165.941C151.467 165.941 152.837 166.287 153.702 166.921L153.054 167.613C152.188 167.036 151.179 166.748 150.026 166.748C148.656 166.748 147.574 167.382 147.358 168.247C147.214 169.227 148.512 169.631 149.954 169.977C151.54 170.38 153.198 170.899 152.909 172.456C152.621 174.013 150.819 174.993 148.872 174.993C147.358 174.993 145.772 174.474 144.835 173.724ZM157.956 172.571L159.037 166.863H157.523L157.667 166.114H159.181L159.758 163.346H160.767L160.191 166.114H163.867L163.723 166.863H160.047L159.037 172.513C158.749 173.724 159.542 174.185 160.767 174.185C161.272 174.185 161.705 174.07 162.354 173.897L162.209 174.647C161.633 174.877 161.128 174.993 160.479 174.993C158.821 174.993 157.667 174.243 157.956 172.571ZM175.258 170.034C175.402 168.305 174.537 166.69 172.158 166.69C170.067 166.69 168.193 168.132 167.688 170.034H175.258ZM166.535 170.438C167.04 167.901 169.491 165.883 172.302 165.883C175.258 165.883 176.7 167.901 176.195 170.438C176.195 170.611 176.195 170.669 176.123 170.784H167.544C167.328 172.975 168.914 174.243 170.933 174.243C172.591 174.243 173.816 173.609 174.754 172.859L175.402 173.378C174.105 174.358 172.735 174.993 170.788 174.993C168.049 174.993 166.03 173.205 166.535 170.438ZM182.395 162.366H183.405L181.026 174.82H180.016L182.395 162.366ZM195.372 170.034C195.516 168.305 194.651 166.69 192.272 166.69C190.181 166.69 188.307 168.132 187.802 170.034H195.372ZM186.649 170.438C187.154 167.901 189.605 165.883 192.416 165.883C195.372 165.883 196.814 167.901 196.309 170.438C196.309 170.611 196.309 170.669 196.237 170.784H187.658C187.442 172.975 189.028 174.243 191.047 174.243C192.705 174.243 193.93 173.609 194.867 172.859L195.516 173.378C194.219 174.358 192.849 174.993 190.902 174.993C188.163 174.993 186.144 173.205 186.649 170.438ZM200.13 170.438C200.563 167.959 203.302 165.883 206.258 165.883C208.205 165.883 209.358 166.633 210.079 167.498L209.286 168.132C208.565 167.325 207.628 166.69 206.114 166.69C203.807 166.69 201.572 168.362 201.212 170.438C200.779 172.571 202.365 174.243 204.744 174.243C206.258 174.243 207.484 173.551 208.493 172.744L209.142 173.321C207.844 174.301 206.474 174.993 204.528 174.993C201.572 174.993 199.626 172.975 200.13 170.438ZM222.623 170.438C222.984 168.362 221.398 166.69 219.019 166.69C216.712 166.69 214.477 168.362 214.116 170.438C213.684 172.571 215.27 174.243 217.649 174.243C219.956 174.243 222.191 172.513 222.623 170.438ZM213.035 170.438C213.467 168.016 216.135 165.883 219.235 165.883C222.263 165.883 224.137 167.959 223.705 170.438C223.2 172.917 220.533 174.993 217.433 174.993C214.405 174.993 212.53 172.917 213.035 170.438ZM229.112 166.114H230.121L229.833 167.67C230.698 166.748 231.779 165.883 233.654 165.883C235.456 165.883 236.393 166.748 236.826 167.786C237.619 166.806 238.916 165.883 240.863 165.883C243.386 165.883 244.612 167.325 244.179 169.515L243.17 174.82H242.233L243.17 169.631C243.53 167.786 242.593 166.69 240.647 166.69C238.916 166.69 237.186 167.786 236.826 169.746L235.888 174.82H234.879L235.816 169.573C236.177 167.786 235.24 166.69 233.365 166.69C231.491 166.69 229.761 168.016 229.472 169.804L228.535 174.82H227.526L229.112 166.114Z" fill="white" stroke="black" stroke-width="0.375005"/>
</g>
<defs>
<clipPath id="clip0_1016_586">
<rect width="279" height="119" fill="white" transform="translate(0 60)"/>
</clipPath>
</defs>
</svg>
